<svg width="19" height="20" viewBox="0 0 19 20" fill="none" xmlns="http://www.w3.org/2000/svg">
<path d="M9.50002 12.4545C10.8556 12.4545 11.9546 11.3556 11.9546 9.99996C11.9546 8.64435 10.8556 7.54541 9.50002 7.54541C8.14441 7.54541 7.04547 8.64435 7.04547 9.99996C7.04547 11.3556 8.14441 12.4545 9.50002 12.4545Z" stroke="#424242" stroke-linecap="round" stroke-linejoin="round"/>
<path d="M15.5545 12.4545C15.4456 12.7013 15.4131 12.9751 15.4613 13.2405C15.5094 13.5059 15.6359 13.7508 15.8245 13.9436L15.8736 13.9927C16.0258 14.1447 16.1465 14.3252 16.2288 14.5238C16.3112 14.7225 16.3536 14.9354 16.3536 15.1505C16.3536 15.3655 16.3112 15.5784 16.2288 15.7771C16.1465 15.9757 16.0258 16.1562 15.8736 16.3082C15.7217 16.4603 15.5412 16.581 15.3425 16.6634C15.1439 16.7457 14.931 16.7881 14.7159 16.7881C14.5009 16.7881 14.2879 16.7457 14.0893 16.6634C13.8906 16.581 13.7102 16.4603 13.5582 16.3082L13.5091 16.2591C13.3163 16.0705 13.0714 15.9439 12.8059 15.8958C12.5405 15.8477 12.2668 15.8802 12.02 15.9891C11.778 16.0928 11.5716 16.265 11.4263 16.4845C11.2809 16.704 11.2029 16.9613 11.2018 17.2245V17.3636C11.2018 17.7976 11.0294 18.2138 10.7225 18.5207C10.4157 18.8276 9.99945 19 9.56545 19C9.13146 19 8.71525 18.8276 8.40837 18.5207C8.10149 18.2138 7.92909 17.7976 7.92909 17.3636V17.29C7.92276 17.0192 7.8351 16.7565 7.67751 16.5362C7.51992 16.3159 7.29969 16.1481 7.04545 16.0545C6.79868 15.9456 6.52493 15.9131 6.25952 15.9613C5.9941 16.0094 5.74919 16.1359 5.55636 16.3245L5.50727 16.3736C5.3553 16.5258 5.17483 16.6465 4.97617 16.7288C4.77752 16.8112 4.56459 16.8536 4.34955 16.8536C4.1345 16.8536 3.92157 16.8112 3.72292 16.7288C3.52426 16.6465 3.34379 16.5258 3.19182 16.3736C3.03967 16.2217 2.91898 16.0412 2.83663 15.8425C2.75428 15.6439 2.71189 15.431 2.71189 15.2159C2.71189 15.0009 2.75428 14.7879 2.83663 14.5893C2.91898 14.3906 3.03967 14.2102 3.19182 14.0582L3.24091 14.0091C3.42953 13.8163 3.55606 13.5714 3.60419 13.3059C3.65231 13.0405 3.61982 12.7668 3.51091 12.52C3.40719 12.278 3.23498 12.0716 3.01547 11.9263C2.79596 11.7809 2.53873 11.7029 2.27545 11.7018H2.13636C1.70237 11.7018 1.28616 11.5294 0.97928 11.2225C0.672402 10.9157 0.5 10.4994 0.5 10.0655C0.5 9.63146 0.672402 9.21525 0.97928 8.90837C1.28616 8.60149 1.70237 8.42909 2.13636 8.42909H2.21C2.48081 8.42276 2.74346 8.3351 2.96379 8.17751C3.18412 8.01992 3.35195 7.79969 3.44545 7.54545C3.55437 7.29868 3.58686 7.02493 3.53873 6.75952C3.49061 6.4941 3.36408 6.24919 3.17545 6.05636L3.12636 6.00727C2.97422 5.8553 2.85352 5.67483 2.77118 5.47617C2.68883 5.27752 2.64644 5.06459 2.64644 4.84955C2.64644 4.6345 2.68883 4.42157 2.77118 4.22292C2.85352 4.02426 2.97422 3.84379 3.12636 3.69182C3.27834 3.53967 3.45881 3.41898 3.65746 3.33663C3.85611 3.25428 4.06905 3.21189 4.28409 3.21189C4.49913 3.21189 4.71207 3.25428 4.91072 3.33663C5.10937 3.41898 5.28984 3.53967 5.44182 3.69182L5.49091 3.74091C5.68374 3.92953 5.92865 4.05606 6.19406 4.10419C6.45948 4.15231 6.73322 4.11982 6.98 4.01091H7.04545C7.28745 3.90719 7.49383 3.73498 7.6392 3.51547C7.78457 3.29596 7.86259 3.03873 7.86364 2.77545V2.63636C7.86364 2.20237 8.03604 1.78616 8.34292 1.47928C8.64979 1.1724 9.06601 1 9.5 1C9.93399 1 10.3502 1.1724 10.6571 1.47928C10.964 1.78616 11.1364 2.20237 11.1364 2.63636V2.71C11.1374 2.97328 11.2154 3.23051 11.3608 3.45002C11.5062 3.66953 11.7126 3.84174 11.9545 3.94545C12.2013 4.05437 12.4751 4.08686 12.7405 4.03873C13.0059 3.99061 13.2508 3.86408 13.4436 3.67545L13.4927 3.62636C13.6447 3.47422 13.8252 3.35352 14.0238 3.27118C14.2225 3.18883 14.4354 3.14644 14.6505 3.14644C14.8655 3.14644 15.0784 3.18883 15.2771 3.27118C15.4757 3.35352 15.6562 3.47422 15.8082 3.62636C15.9603 3.77834 16.081 3.95881 16.1634 4.15746C16.2457 4.35611 16.2881 4.56905 16.2881 4.78409C16.2881 4.99913 16.2457 5.21207 16.1634 5.41072C16.081 5.60937 15.9603 5.78984 15.8082 5.94182L15.7591 5.99091C15.5705 6.18374 15.4439 6.42865 15.3958 6.69406C15.3477 6.95948 15.3802 7.23322 15.4891 7.48V7.54545C15.5928 7.78745 15.765 7.99383 15.9845 8.1392C16.204 8.28457 16.4613 8.36259 16.7245 8.36364H16.8636C17.2976 8.36364 17.7138 8.53604 18.0207 8.84292C18.3276 9.14979 18.5 9.56601 18.5 10C18.5 10.434 18.3276 10.8502 18.0207 11.1571C17.7138 11.464 17.2976 11.6364 16.8636 11.6364H16.79C16.5267 11.6374 16.2695 11.7154 16.05 11.8608C15.8305 12.0062 15.6583 12.2126 15.5545 12.4545Z" stroke="#424242" stroke-linecap="round" stroke-linejoin="round"/>
</svg>
