<svg width="17" height="18" viewBox="0 0 17 18" fill="none" xmlns="http://www.w3.org/2000/svg">
<path d="M12.2523 18H4.72579C3.28579 18 2.20579 17.6149 1.53602 16.853C0.866253 16.0912 0.60671 14.9861 0.782524 13.5544L1.53602 7.27537C1.75369 5.42513 2.22253 3.76746 5.48765 3.76746H11.5156C14.7723 3.76746 15.2411 5.42513 15.4672 7.27537L16.2207 13.5544C16.3881 14.9861 16.1369 16.0996 15.4672 16.853C14.7723 17.6149 13.7007 18 12.2523 18ZM5.47927 5.02327C3.06811 5.02327 2.9509 5.97768 2.77509 7.41768L2.0216 13.6967C1.89602 14.76 2.04671 15.5386 2.47369 16.0158C2.90067 16.493 3.65416 16.7358 4.72579 16.7358H12.2523C13.3239 16.7358 14.0774 16.493 14.5044 16.0158C14.9314 15.5386 15.0821 14.76 14.9565 13.6967L14.203 7.41768C14.0272 5.9693 13.9183 5.02327 11.4988 5.02327H5.47927Z" fill="#424242"/>
<path d="M11.8421 6.27907C11.4989 6.27907 11.2142 5.99442 11.2142 5.65116V2.72093C11.2142 1.81674 10.6533 1.25581 9.7491 1.25581H7.23747C6.33328 1.25581 5.77235 1.81674 5.77235 2.72093V5.65116C5.77235 5.99442 5.4877 6.27907 5.14445 6.27907C4.80119 6.27907 4.51654 5.99442 4.51654 5.65116V2.72093C4.51654 1.12186 5.6384 0 7.23747 0H9.7491C11.3482 0 12.47 1.12186 12.47 2.72093V5.65116C12.47 5.99442 12.1854 6.27907 11.8421 6.27907Z" fill="#424242"/>
<path d="M15.5342 13.8391H5.14445C4.80119 13.8391 4.51654 13.5544 4.51654 13.2112C4.51654 12.8679 4.80119 12.5833 5.14445 12.5833H15.5342C15.8775 12.5833 16.1621 12.8679 16.1621 13.2112C16.1621 13.5544 15.8775 13.8391 15.5342 13.8391Z" fill="#424242"/>
</svg>
