<svg width="27" height="26" viewBox="0 0 27 26" fill="none" xmlns="http://www.w3.org/2000/svg">
<rect width="27.0001" height="26" rx="13" fill="#8EFDAD"/>
<path d="M19.5 13.5405C19.3949 14.6778 18.9681 15.7615 18.2696 16.665C17.571 17.5685 16.6296 18.2544 15.5554 18.6424C14.4813 19.0304 13.3189 19.1044 12.2042 18.8559C11.0895 18.6073 10.0687 18.0465 9.2611 17.2389C8.45354 16.4313 7.89267 15.4105 7.64412 14.2958C7.39557 13.1811 7.46962 12.0187 7.85761 10.9446C8.24559 9.87043 8.93147 8.929 9.83497 8.23045C10.7385 7.53189 11.8222 7.10509 12.9595 7C12.2937 7.90076 11.9733 9.01056 12.0566 10.1276C12.1399 11.2446 12.6213 12.2946 13.4134 13.0866C14.2054 13.8787 15.2554 14.3601 16.3724 14.4434C17.4894 14.5267 18.5992 14.2063 19.5 13.5405Z" stroke="black" stroke-linecap="round" stroke-linejoin="round"/>
</svg>
